<svg version="1.2" baseProfile="tiny" xmlns="http://www.w3.org/2000/svg" width="83.981" height="107.11" viewBox="0 0 83.981 107.11"><g fill="#fff"><path d="M39.137 83.98H13.285C5.96 83.98 0 78.02 0 70.696V13.284C0 5.96 5.96 0 13.285 0h57.41c7.327 0 13.286 5.96 13.286 13.284v57.412c0 4.253-2.06 8.28-5.512 10.773-1.018.734-2.438.504-3.173-.512-.735-1.018-.506-2.438.512-3.173 2.272-1.642 3.63-4.292 3.63-7.09v-57.41c0-4.82-3.922-8.74-8.74-8.74H13.284c-4.82 0-8.74 3.92-8.74 8.74v57.41c0 4.82 3.92 8.74 8.74 8.74h25.853c1.255 0 2.272 1.018 2.272 2.272s-1.018 2.273-2.273 2.273zM72.3 107.11c-.37 0-.727-.147-.99-.41L60.328 95.714l-3.042 6.46c-.236.5-.75.782-1.3.803-.554-.013-1.048-.353-1.26-.864L43.258 74.368c-.216-.523-.096-1.125.304-1.525.4-.398 1-.52 1.524-.304L72.83 84.003c.514.212.853.707.866 1.262.013.555-.303 1.064-.806 1.3l-6.47 3.03 11 10.995c.546.548.546 1.435 0 1.98l-4.13 4.13c-.26.263-.617.41-.99.41zM59.91 91.915c.367 0 .724.146.99.41l11.4 11.404 2.15-2.15-11.42-11.417c-.323-.323-.468-.782-.39-1.232.08-.448.373-.83.786-1.024l5.398-2.527-21.69-8.964 8.968 21.698 2.54-5.395c.194-.413.577-.705 1.026-.783.08-.015.16-.022.24-.022z"/></g></svg>