<svg version="1.2" baseProfile="tiny" xmlns="http://www.w3.org/2000/svg" width="17.035" height="13.846" viewBox="8.506 10.912 17.035 13.846"><path d="M25.54 12.552c-.625.278-1.3.466-2.006.55.722-.433 1.275-1.117 1.536-1.933-.676.398-1.423.69-2.22.846-.636-.68-1.545-1.104-2.55-1.104-1.93 0-3.495 1.564-3.495 3.494 0 .274.03.54.09.797-2.904-.146-5.48-1.536-7.205-3.652-.3.52-.473 1.12-.473 1.76 0 1.21.617 2.282 1.555 2.91-.572-.02-1.11-.177-1.584-.44v.045c0 1.693 1.205 3.106 2.806 3.427-.293.082-.603.123-.92.123-.227 0-.446-.02-.658-.063.443 1.39 1.734 2.4 3.265 2.426-1.195.938-2.703 1.497-4.34 1.497-.282 0-.562-.016-.834-.048 1.547.99 3.384 1.57 5.357 1.57 6.43 0 9.945-5.325 9.945-9.945 0-.15-.003-.303-.01-.452.682-.49 1.276-1.107 1.743-1.808"/></svg>