<svg version="1.2" baseProfile="tiny" xmlns="http://www.w3.org/2000/svg" width="22.88" height="25.518" viewBox="0 0 22.88 25.518"><path fill="#4F453C" d="M20.52 25.518H2.358c-1.3 0-2.357-1.058-2.357-2.36V9.92c0-.292.13-.57.352-.76L10.834.237c.376-.317.926-.318 1.3.004L22.53 9.16c.222.19.35.467.35.76v13.24c0 1.3-1.058 2.358-2.36 2.358zM2 10.38v12.78c0 .196.16.357.357.357H20.52c.198 0 .36-.16.36-.358V10.38l-9.4-8.064L2 10.38zM20.52 25.018H2.358c-.764 0-1.46-.482-1.733-1.2-.073-.194-.02-.413.135-.55l10.348-9.23c.19-.17.477-.17.666 0l10.348 9.23c.154.137.208.355.135.55-.275.717-.97 1.2-1.736 1.2zM1.73 23.74c.157.175.382.277.627.277H20.52c.246 0 .472-.103.63-.276l-9.71-8.66-9.71 8.66zM14.625 17.684c-.138 0-.274-.057-.373-.167-.184-.206-.166-.522.04-.706l7.163-6.386c.207-.185.522-.166.706.04s.167.522-.04.706l-7.162 6.387c-.096.085-.215.127-.333.127zM8.31 17.733c-.12 0-.238-.042-.334-.127L.76 11.17c-.207-.184-.225-.5-.04-.706.182-.206.497-.225.705-.04l7.217 6.437c.206.185.224.5.04.707-.1.11-.236.166-.373.166zM11.438 12.83c-.256 0-.512-.097-.707-.292L7.98 9.79c-.39-.39-.39-1.022 0-1.413s1.024-.39 1.415 0l2.043 2.04 2.043-2.04c.392-.39 1.024-.39 1.415 0s.39 1.024 0 1.414l-2.75 2.748c-.195.195-.45.293-.707.293zM11.438 12.083c-.553 0-1-.447-1-1V6.157c0-.553.447-1 1-1s1 .447 1 1v4.926c0 .553-.447 1-1 1z"/></svg>