<svg xmlns="http://www.w3.org/2000/svg" width="23.546" height="23.552" viewBox="1202.534 1372.233 23.546 23.552" enable-background="new 1202.534 1372.233 23.546 23.552"><path fill="#fff" d="M1214.307 1395.784c-3.145 0-6.102-1.225-8.326-3.447-2.222-2.226-3.445-5.183-3.445-8.328 0-3.147 1.225-6.105 3.448-8.33 2.225-2.223 5.183-3.447 8.326-3.447 3.145 0 6.103 1.225 8.327 3.448 4.592 4.594 4.592 12.064 0 16.655-2.225 2.225-5.184 3.45-8.33 3.45zm.002-21.552c-2.61 0-5.066 1.017-6.913 2.862-1.846 1.847-2.862 4.302-2.862 6.914 0 2.61 1.016 5.066 2.86 6.914 1.847 1.846 4.302 2.86 6.912 2.86 2.613 0 5.068-1.017 6.916-2.862 3.812-3.813 3.812-10.015 0-13.826-1.846-1.846-4.3-2.862-6.914-2.862zM1214.307 1395.784c-3.145 0-6.102-1.225-8.326-3.447-.287-.292-.558-.59-.812-.9-.26-.32-.297-.768-.094-1.126.27-.48.64-.85 1.065-1.073 1.55-.736 3.178-1.254 4.868-1.55-.46-.413-.752-.926-.8-1.437-.015-.13-.028-.264-.044-.396-.397-.205-.682-.6-.732-1.075l-.202-1.948c-.048-.452.135-.88.45-1.162l-.05-.5c-.066-.682-.222-2.276 1.036-3.398.826-.812 2.164-1.295 3.64-1.295 1.477 0 2.817.483 3.678 1.326 1.22 1.087 1.07 2.68 1.006 3.358l-.056.512c.316.282.498.708.45 1.16l-.204 1.946c-.045.476-.33.873-.73 1.078l-.05.416c-.04.487-.328 1-.79 1.417 1.687.294 3.308.81 4.828 1.53.466.244.834.617 1.104 1.098.203.357.164.804-.096 1.12-.252.312-.52.61-.812.898-2.222 2.224-5.18 3.448-8.327 3.448zm-6.955-4.905l.048.046c1.842 1.843 4.297 2.858 6.907 2.858 2.613 0 5.068-1.018 6.916-2.863l.043-.04c-1.522-.69-3.19-1.15-4.932-1.358-.266-.032-.51-.17-.674-.384-.164-.214-.234-.484-.197-.75l.2-1.372c.042-.285.204-.537.446-.692.19-.122.294-.265.312-.31l.143-1.245c.048-.387.313-.71.683-.832l.014-.005.074-.71c-.018-.01-.037-.02-.055-.033-.307-.21-.47-.574-.426-.944l.146-1.272c.06-.642.08-1.3-.38-1.71-.518-.507-1.368-.788-2.313-.788-.94 0-1.793.28-2.272.755-.498.445-.478 1.106-.414 1.75l.144 1.273c.043.37-.125.734-.436.942-.017.01-.03.02-.045.03l.07.708c.008 0 .014.003.02.005.37.12.635.445.682.83.05.428.098.852.146 1.28.01.006.115.148.308.27.248.157.414.414.455.704l.19 1.36c.04.267-.03.537-.194.752s-.41.354-.677.386c-1.73.21-3.387.665-4.93 1.36z"/></svg>