<?xml version="1.0" encoding="utf-8"?>
<!-- Generator: Adobe Illustrator 16.0.0, SVG Export Plug-In . SVG Version: 6.00 Build 0)  -->
<!DOCTYPE svg PUBLIC "-//W3C//DTD SVG 1.1//EN" "http://www.w3.org/Graphics/SVG/1.1/DTD/svg11.dtd">
<svg version="1.1" id="Calque_1" xmlns="http://www.w3.org/2000/svg" xmlns:xlink="http://www.w3.org/1999/xlink" x="0px" y="0px"
	 width="25.301px" height="20.925px" viewBox="0 0 25.301 20.925" enable-background="new 0 0 25.301 20.925" xml:space="preserve">
<g>
	<g>
		<path d="M19.094,20.925c-3.424,0-6.209-2.784-6.209-6.207c0-3.424,2.785-6.208,6.209-6.208c3.422,0,6.207,2.785,6.207,6.208
			C25.301,18.141,22.516,20.925,19.094,20.925L19.094,20.925z M19.094,9.51c-2.873,0-5.209,2.336-5.209,5.208
			c0,2.871,2.336,5.207,5.209,5.207c2.871,0,5.207-2.336,5.207-5.207C24.301,11.846,21.965,9.51,19.094,9.51L19.094,9.51z"/>
	</g>
	<g>
		<path d="M11.979,20.496c-0.166,0-0.332-0.041-0.482-0.124c-0.045-0.024-0.087-0.052-0.127-0.083l-0.303-0.211
			c-0.742-0.517-2.48-1.725-3.635-2.616c-4.414-3.435-6.668-5.912-7.096-7.797C0.129,9.042,0.008,8.293,0,7.524
			c-0.027-2.044,0.744-4.02,2.117-5.417C3.37,0.834,5.012,0.129,6.742,0.122c1.935-0.027,3.714,0.768,5.009,2.164
			c1.256-1.425,3.027-2.258,4.957-2.284c1.752-0.041,3.385,0.627,4.668,1.868c1.406,1.36,2.227,3.313,2.254,5.359
			c0.008,0.769-0.095,1.521-0.305,2.235c-0.037,0.201-0.139,0.502-0.287,0.836l-1.824-0.821c0.086-0.192,0.145-0.358,0.172-0.494
			c0.176-0.609,0.25-1.163,0.244-1.731c-0.02-1.515-0.619-2.953-1.645-3.945c-0.896-0.867-2.018-1.341-3.244-1.306
			c-1.706,0.022-3.236,0.943-4.1,2.462c-0.176,0.308-0.502,0.5-0.856,0.505C11.412,5,11.1,4.791,10.917,4.487
			c-0.898-1.484-2.43-2.366-4.104-2.366c-0.02,0-0.037,0-0.055,0C5.557,2.127,4.42,2.619,3.545,3.509C2.543,4.528,1.979,5.983,2,7.5
			c0.006,0.569,0.094,1.118,0.262,1.635c0.199,0.858,1.26,2.75,6.395,6.746c1.014,0.782,2.523,1.839,3.335,2.404
			c0.479-0.332,1.048-0.754,1.696-1.26l1.229,1.578c-0.98,0.765-1.768,1.332-2.4,1.736C12.352,20.443,12.165,20.496,11.979,20.496
			L11.979,20.496z"/>
	</g>
	<g>
		<path d="M19.094,18.482c-0.553,0-1-0.448-1-1v-5.527c0-0.553,0.447-1,1-1s1,0.448,1,1v5.527
			C20.094,18.034,19.647,18.482,19.094,18.482L19.094,18.482z"/>
	</g>
	<g>
		<path d="M21.858,15.718h-5.527c-0.553,0-1-0.448-1-1c0-0.553,0.447-1,1-1h5.527c0.552,0,1,0.447,1,1
			C22.858,15.27,22.41,15.718,21.858,15.718L21.858,15.718z"/>
	</g>
</g>
</svg>
