<svg xmlns="http://www.w3.org/2000/svg" width="22.529" height="19.126" viewBox="0 0 22.529 19.126"><path fill="#fff" d="M21.53 19.126H1c-.553 0-1-.448-1-1V1.794c0-.552.447-1 1-1h20.53c.552 0 1 .448 1 1v16.332c0 .552-.448 1-1 1zm-19.53-2h18.53V2.794H2v14.332zM7.213 10.52c-1.448 0-2.627-1.288-2.627-2.87 0-1.585 1.18-2.874 2.627-2.874 1.445 0 2.62 1.29 2.62 2.873 0 1.58-1.175 2.87-2.62 2.87zm0-3.745c-.34 0-.627.4-.627.873 0 .472.287.87.627.87.33 0 .62-.406.62-.87 0-.464-.29-.873-.62-.873zM10.338 16.062H4.084c-.525 0-.96-.407-.998-.93l-.14-2.02c-.066-1.007.65-2.082 1.63-2.446 1.713-.61 3.568-.605 5.255-.003.996.366 1.714 1.44 1.642 2.452l-.136 2.016c-.037.525-.473.932-.998.932zm-5.32-2h4.386l.073-1.082c-.002-.105-.155-.373-.327-.437-1.238-.442-2.634-.446-3.888.002-.16.06-.315.33-.318.437l.074 1.08zM15.24 0h-7.5c-.967 0-1.75.783-1.75 1.75S6.773 3.5 7.74 3.5h7.5c.967 0 1.75-.783 1.75-1.75S16.207 0 15.24 0zM17.574 9.084h-4.166c-.553 0-1-.448-1-1s.447-1 1-1h4.166c.553 0 1 .448 1 1s-.447 1-1 1zM17.574 12.25h-4.166c-.553 0-1-.448-1-1s.447-1 1-1h4.166c.553 0 1 .448 1 1s-.447 1-1 1z"/></svg>