<svg xmlns="http://www.w3.org/2000/svg" width="25.834" height="23.479" viewBox="0 0 25.834 23.479"><path fill="#185e3e" d="M21.52 12.167c-1.068 0-2.088-.406-2.867-1.107-.78.7-1.8 1.107-2.867 1.107s-2.088-.406-2.867-1.107c-.782.7-1.8 1.107-2.868 1.107s-2.088-.406-2.867-1.107c-.78.7-1.8 1.107-2.867 1.107C1.936 12.167 0 10.23 0 7.852c0-.124.023-.247.068-.363L2.736.636c.15-.384.52-.637.932-.637h18c.39 0 .744.227.908.58l3.166 6.852c.06.132.092.275.092.42 0 2.38-1.936 4.315-4.314 4.315zm-2.868-3.68c.357 0 .69.193.867.504.42.737 1.167 1.177 2 1.177 1.208 0 2.202-.932 2.306-2.114L21.03 2H4.35L2.006 8.023c.09 1.196 1.092 2.144 2.31 2.144.83 0 1.58-.44 2-1.176.356-.62 1.378-.62 1.735 0 .423.737 1.17 1.177 2 1.177.83 0 1.58-.44 2-1.176.356-.62 1.378-.62 1.735 0 .422.737 1.168 1.177 2 1.177.83 0 1.578-.44 1.998-1.176.18-.31.51-.502.87-.502zM22.084 23.48H3.752c-.553 0-1-.448-1-1v-11c0-.554.447-1 1-1s1 .446 1 1v9.998h16.332v-10c0-.552.447-1 1-1s1 .448 1 1v11c0 .553-.447 1-1 1zM18.74 22.48H7.074c-.277 0-.5-.225-.5-.5v-7.334c0-.276.223-.5.5-.5H18.74c.275 0 .5.224.5.5v7.333c0 .275-.224.5-.5.5zm-11.166-1H18.24v-6.334H7.574v6.333zM22.588 4.146H3.338c-.277 0-.5-.224-.5-.5s.223-.5.5-.5h19.25c.275 0 .5.224.5.5s-.225.5-.5.5z"/></svg>
