<svg version="1.2" baseProfile="tiny" xmlns="http://www.w3.org/2000/svg" width="841.89" height="595.28" viewBox="0 0 841.89 595.28"><path fill="#51473D" d="M136.182 132.376h-3.812c-.197 0-.355-.16-.355-.355s.16-.354.355-.354h3.457v-3.457c0-.197.16-.356.355-.356.196 0 .355.16.355.355v3.81c0 .197-.16.356-.355.356zM142.747 135.57H132.37c-.197 0-.355-.16-.355-.356v-3.193c0-.093.038-.184.104-.25l3.81-3.812c.067-.066.158-.104.252-.104h6.565c.196 0 .355.16.355.355v7.004c0 .197-.16.355-.355.355zm-10.022-.71h9.667v-6.295h-6.063l-3.605 3.604v2.69zM142.747 143.822H132.37c-.197 0-.355-.16-.355-.355v-3.512c0-.197.16-.355.355-.355h10.377c.196 0 .355.16.355.355v3.512c0 .196-.16.355-.355.355zm-10.022-.71h9.667v-2.803h-9.667v2.8zM145.9 142.595h-2.225v-1.42h.804v-5.157h-13.844v5.156h.804v1.42h-2.226v-7.998H145.9v8zM141.724 137.073c-.46 0-.836.375-.836.836 0 .46.375.835.836.835.462 0 .837-.375.837-.836 0-.462-.374-.837-.836-.837zM139.68 138.08h-4.37c-.195 0-.354-.16-.354-.356s.16-.355.355-.355h4.37c.195 0 .354.158.354.354s-.16.355-.355.355z"/></svg>