<svg version="1.2" baseProfile="tiny" xmlns="http://www.w3.org/2000/svg" width="17.283" height="23.143" viewBox="0 0 17.283 23.143"><path fill="#E76946" d="M8.726 10.76c-2.646 0-4.8-2.413-4.8-5.38S6.08 0 8.727 0s4.798 2.413 4.798 5.38-2.152 5.38-4.798 5.38zm0-8.76c-1.543 0-2.8 1.517-2.8 3.38s1.257 3.38 2.8 3.38c1.542 0 2.798-1.517 2.798-3.38S10.27 2 8.726 2zM15.958 23.142H1.328c-.526 0-.962-.407-1-.932l-.32-4.72c-.117-1.735 1.232-3.738 2.945-4.372 3.675-1.316 7.714-1.313 11.368-.005 1.73.638 3.077 2.642 2.954 4.382l-.318 4.716c-.036.524-.473.932-.998.932zm-13.697-2h12.764l.256-3.785c.056-.777-.664-2.004-1.64-2.36-3.204-1.147-6.786-1.15-10.003 0-.964.356-1.686 1.586-1.634 2.36l.258 3.785z"/></svg>