<svg xmlns="http://www.w3.org/2000/svg" width="23.545" height="23.333" viewBox="0 0 23.545 23.333"><path fill="#fff" d="M22.545 3.667h-13.5c-.553 0-1-.447-1-1s.447-1 1-1h13.5c.553 0 1 .447 1 1s-.447 1-1 1zM4.333 5.333H1c-.553 0-1-.447-1-1V1c0-.553.447-1 1-1h3.333c.553 0 1 .447 1 1v3.333c0 .553-.447 1-1 1zM2 3.333h1.333V2H2v1.333zM22.545 12.667h-13.5c-.553 0-1-.447-1-1s.447-1 1-1h13.5c.553 0 1 .447 1 1s-.447 1-1 1zM4.333 14.333H1c-.553 0-1-.447-1-1V10c0-.553.447-1 1-1h3.333c.553 0 1 .447 1 1v3.333c0 .553-.447 1-1 1zm-2.333-2h1.333V11H2v1.333zM22.545 21.667h-13.5c-.553 0-1-.447-1-1s.447-1 1-1h13.5c.553 0 1 .447 1 1s-.447 1-1 1zM4.333 23.333H1c-.553 0-1-.447-1-1V19c0-.553.447-1 1-1h3.333c.553 0 1 .447 1 1v3.333c0 .553-.447 1-1 1zm-2.333-2h1.333V20H2v1.333z"/></svg>