<?xml version="1.0" encoding="utf-8"?>
<!-- Generator: Adobe Illustrator 16.0.0, SVG Export Plug-In . SVG Version: 6.00 Build 0)  -->
<svg version="1.2" baseProfile="tiny" id="Layer_3" xmlns="http://www.w3.org/2000/svg" xmlns:xlink="http://www.w3.org/1999/xlink"
	 x="0px" y="0px" width="22.847px" height="23.232px" viewBox="0 0 22.847 23.232" xml:space="preserve">
<g>
	<g>
		<path d="M9.967,19.937c-5.493,0-9.965-4.47-9.967-9.964C0.002,4.474,4.474,0.001,9.969,0c5.495,0,9.968,4.472,9.97,9.969
			C19.938,15.465,15.465,19.937,9.967,19.937L9.967,19.937z M9.969,2C5.576,2.001,2.002,5.577,2,9.972
			c0.002,4.391,3.575,7.964,7.967,7.964c4.396,0,7.972-3.574,7.972-7.967C17.937,5.575,14.361,2,9.969,2L9.969,2z"/>
	</g>
	<g>
		<path d="M4.362,9.967h-1C3.363,6.324,6.327,3.36,9.969,3.36v1C6.878,4.36,4.363,6.875,4.362,9.967L4.362,9.967z"/>
	</g>
	<g>
		<path d="M21.847,23.232c-0.256,0-0.512-0.098-0.707-0.293l-5.568-5.567c-0.391-0.39-0.391-1.023,0-1.414s1.023-0.391,1.414,0
			l5.568,5.567c0.391,0.39,0.391,1.023,0,1.414C22.358,23.135,22.103,23.232,21.847,23.232L21.847,23.232z"/>
	</g>
</g>
</svg>
