<svg version="1.2" baseProfile="tiny" xmlns="http://www.w3.org/2000/svg" width="90.07" height="90.067" viewBox="0 0 90.07 90.067"><g fill="#fff"><path d="M37.213 90.067C16.693 90.067 0 73.373 0 52.854c0-20.518 16.693-37.21 37.213-37.21 7.444 0 14.63 2.19 20.782 6.34.916.617 1.157 1.86.54 2.775s-1.86 1.156-2.776.54c-5.49-3.7-11.902-5.657-18.547-5.657C18.9 19.643 4 34.543 4 52.853c0 18.314 14.9 33.214 33.213 33.214 18.313 0 33.21-14.9 33.21-33.213 0-7.364-2.358-14.337-6.82-20.165-.673-.877-.506-2.133.37-2.805.875-.67 2.133-.506 2.805.372 5.002 6.532 7.646 14.345 7.646 22.597 0 20.52-16.693 37.213-37.21 37.213zM37.213 74.276c-11.81 0-21.42-9.61-21.42-21.422 0-11.81 9.61-21.418 21.42-21.418 3.54 0 7.047.882 10.143 2.55.972.524 1.335 1.737.812 2.71-.524.97-1.738 1.335-2.71.81-2.514-1.354-5.365-2.07-8.244-2.07-9.605 0-17.42 7.813-17.42 17.418 0 9.606 7.814 17.422 17.42 17.422 9.604 0 17.418-7.815 17.418-17.422 0-3.355-.956-6.613-2.764-9.42-.598-.93-.33-2.167.6-2.765.928-.598 2.165-.332 2.764.598 2.225 3.455 3.4 7.46 3.4 11.586 0 11.812-9.61 21.422-21.42 21.422zM37.213 59.377c-3.597 0-6.523-2.926-6.523-6.523 0-2.924 1.97-5.51 4.786-6.285.748-.205 1.517.23 1.722.977.205.745-.232 1.516-.978 1.72-1.607.444-2.73 1.918-2.73 3.587 0 2.053 1.67 3.723 3.724 3.723 1.523 0 2.878-.913 3.45-2.326.29-.716 1.11-1.058 1.823-.77.717.29 1.063 1.106.772 1.822-1.004 2.476-3.377 4.075-6.047 4.075zM37.213 54.254c-.394 0-.777-.166-1.05-.472-.383-.434-.46-1.06-.192-1.574l5.886-11.316c.206-.396.588-.67 1.028-.738.44-.068.89.078 1.203.394l1.274 1.273 27.137-27.136-1.455-4.396c-.166-.502-.035-1.056.34-1.43L79.83.41c.334-.333.814-.476 1.275-.38.462.096.845.418 1.018.857l1.763 4.473 5.396 2.626c.406.198.692.58.768 1.027s-.07.9-.39 1.222l-7.698 7.696c-.263.263-.62.41-.99.41h-3.922c-.773 0-1.4-.625-1.4-1.4s.627-1.4 1.4-1.4h3.342l5.898-5.896-4.12-2.005c-.313-.154-.56-.42-.688-.747L80.304 3.9l-6.33 6.328 1.454 4.395c.166.502.035 1.056-.34 1.43L46.353 44.79c-.547.547-1.435.546-1.98 0l-.912-.913-3.323 6.39 7.072-2.64-.574-.574c-.547-.547-.546-1.433 0-1.98.548-.546 1.434-.546 1.98.002l2.11 2.113c.338.337.48.822.38 1.287s-.434.847-.88 1.014l-12.523 4.675c-.16.06-.326.09-.49.09zM78.86 12.606c-.554 0-1.078-.33-1.3-.875L75.3 6.15c-.29-.716.056-1.532.77-1.822.717-.288 1.535.054 1.825.77l2.262 5.58c.29.718-.056 1.534-.77 1.824-.174.07-.352.104-.528.104z"/></g></svg>