<?xml version="1.0" encoding="utf-8"?>
<!-- Generator: Adobe Illustrator 16.0.0, SVG Export Plug-In . SVG Version: 6.00 Build 0)  -->
<!DOCTYPE svg PUBLIC "-//W3C//DTD SVG 1.1//EN" "http://www.w3.org/Graphics/SVG/1.1/DTD/svg11.dtd">
<svg version="1.1" id="Layer_3" xmlns="http://www.w3.org/2000/svg" xmlns:xlink="http://www.w3.org/1999/xlink" x="0px" y="0px"
	 width="25.302px" height="20.926px" viewBox="0 0 25.302 20.926" enable-background="new 0 0 25.302 20.926" xml:space="preserve">
<g>
	<g>
		<path fill="#272A2F" d="M19.095,20.926c-3.424,0-6.209-2.785-6.209-6.208s2.785-6.208,6.209-6.208s6.207,2.785,6.207,6.208
			S22.519,20.926,19.095,20.926L19.095,20.926z M19.095,9.51c-2.871,0-5.209,2.336-5.209,5.208s2.338,5.208,5.209,5.208
			s5.207-2.336,5.207-5.208S21.966,9.51,19.095,9.51L19.095,9.51z"/>
	</g>
	<g>
		<path fill="#272A2F" d="M11.979,20.495c-0.164,0-0.33-0.041-0.48-0.124c-0.045-0.024-0.088-0.052-0.127-0.083l-0.303-0.211
			c-0.744-0.516-2.482-1.725-3.637-2.616c-4.412-3.435-6.666-5.912-7.096-7.797c-0.205-0.622-0.326-1.371-0.336-2.14
			c-0.027-2.044,0.746-4.02,2.119-5.417c1.252-1.273,2.893-1.978,4.623-1.985c1.963-0.027,3.713,0.768,5.008,2.164
			c1.258-1.425,3.029-2.258,4.957-2.284c1.771-0.041,3.385,0.627,4.668,1.868c1.406,1.36,2.229,3.313,2.254,5.359
			c0.01,0.769-0.094,1.521-0.305,2.235c-0.035,0.201-0.137,0.502-0.287,0.836l-1.824-0.821c0.088-0.192,0.145-0.358,0.172-0.494
			c0.176-0.609,0.252-1.163,0.244-1.731c-0.02-1.515-0.617-2.953-1.645-3.945c-0.896-0.867-2.021-1.341-3.242-1.306
			c-1.707,0.022-3.236,0.943-4.102,2.462c-0.176,0.308-0.5,0.5-0.855,0.505c-0.004,0-0.01,0-0.014,0
			c-0.35,0-0.675-0.183-0.855-0.482c-0.896-1.484-2.428-2.366-4.104-2.366c-0.018,0-0.035,0-0.055,0
			C5.56,2.127,4.421,2.619,3.546,3.509C2.544,4.528,1.981,5.983,2.001,7.5c0.008,0.569,0.095,1.118,0.262,1.635
			c0.199,0.858,1.262,2.75,6.396,6.747c1.012,0.782,2.521,1.838,3.334,2.403c0.48-0.332,1.047-0.753,1.697-1.259l1.229,1.578
			c-0.982,0.764-1.768,1.332-2.402,1.735C12.353,20.443,12.167,20.495,11.979,20.495L11.979,20.495z"/>
	</g>
	<g>
		<path fill="#272A2F" d="M21.858,15.718h-5.527c-0.553,0-1-0.448-1-1s0.447-1,1-1h5.527c0.553,0,1,0.448,1,1
			S22.411,15.718,21.858,15.718L21.858,15.718z"/>
	</g>
</g>
</svg>
