<svg version="1.2" baseProfile="tiny" xmlns="http://www.w3.org/2000/svg" width="75.521" height="84.109" viewBox="0 0 75.521 84.109"><g fill="#fff"><path d="M71.5 48.873l-43.157 33.68c-3.203 2.5-7.84 1.928-10.34-1.273L1.554 60.202c-2.496-3.2-1.922-7.836 1.28-10.336l43.156-33.68c3.2-2.498 7.834-1.926 10.332 1.274L72.77 38.537c2.5 3.202 1.928 7.838-1.27 10.336zM5.293 53.02c-1.464 1.143-1.727 3.26-.587 4.722l16.45 21.077c1.14 1.462 3.26 1.723 4.724.58l43.157-33.68c1.46-1.14 1.72-3.258.58-4.72l-16.45-21.08c-1.14-1.46-3.255-1.72-4.717-.58L5.294 53.02zM72.69 34.24l-3.243 2.532c-.87.68-2.127.524-2.807-.346s-.524-2.127.346-2.807l3.243-2.532c1.46-1.14 1.722-3.26.58-4.72L54.365 5.29c-1.142-1.463-3.26-1.725-4.722-.584L6.485 38.39c-1.46 1.14-1.72 3.258-.58 4.72l1.944 2.492c.68.87.523 2.128-.347 2.807-.87.68-2.127.524-2.807-.347l-1.944-2.49c-2.5-3.202-1.928-7.84 1.272-10.336L47.182 1.555C50.382-.943 55.02-.37 57.518 2.83l16.447 21.075c2.498 3.202 1.926 7.84-1.275 10.336zM9.81 47.91c-.055.042-.12.08-.188.106-.386.15-.82-.04-.97-.426L4.555 37.085c-.15-.386.04-.822.427-.97.385-.15.82.04.97.425l4.096 10.505c.12.316.016.665-.24.864zM12.944 45.464c-.056.043-.12.08-.19.107-.385.15-.82-.04-.97-.425L7.69 34.64c-.15-.386.038-.822.425-.97.386-.15.82.04.97.425L13.18 44.6c.124.317.018.666-.236.864zM16.077 43.02c-.057.044-.12.08-.19.108-.386.15-.82-.04-.97-.427L10.82 32.197c-.15-.385.04-.82.428-.97.385-.15.82.04.97.426l4.096 10.505c.123.315.017.664-.237.863zM19.21 40.575c-.057.044-.12.08-.19.108-.386.15-.82-.04-.97-.427L13.954 29.75c-.15-.385.038-.82.426-.97.387-.15.822.04.972.427l4.094 10.505c.123.315.017.664-.237.863zM22.34 38.13c-.055.044-.12.08-.188.108-.386.15-.82-.04-.97-.427l-4.096-10.504c-.15-.386.04-.822.427-.97.385-.15.82.04.97.426l4.096 10.505c.122.316.016.665-.24.863zM25.474 35.685c-.056.044-.12.08-.19.108-.385.15-.82-.04-.97-.427L20.22 24.86c-.15-.385.04-.82.426-.97.386-.15.82.04.97.426l4.095 10.505c.124.318.02.667-.236.865zM28.607 33.24c-.057.044-.12.082-.19.108-.386.15-.82-.04-.97-.426L23.35 22.417c-.15-.385.04-.82.428-.97.385-.15.82.04.97.425l4.096 10.505c.123.316.017.665-.237.864zM31.74 30.796c-.057.044-.12.08-.19.107-.386.15-.82-.04-.97-.426l-4.095-10.505c-.15-.386.04-.822.426-.97.387-.15.822.04.972.426l4.094 10.505c.123.316.018.664-.237.863zM34.872 28.35c-.057.045-.12.082-.19.11-.386.15-.82-.042-.97-.428l-4.096-10.505c-.15-.385.04-.82.427-.97.386-.15.82.04.97.426l4.096 10.505c.122.316.016.664-.238.863zM38.004 25.906c-.056.044-.12.08-.19.108-.385.15-.82-.04-.97-.427L32.75 15.083c-.15-.385.038-.82.426-.97.386-.15.82.04.97.426l4.095 10.504c.125.315.02.664-.236.862zM41.137 23.46c-.057.045-.12.082-.19.11-.385.15-.82-.042-.97-.428L35.88 12.637c-.15-.386.04-.822.428-.97.385-.15.82.04.97.426l4.096 10.505c.123.316.018.665-.237.863zM44.27 21.017c-.056.044-.12.08-.19.108-.385.15-.82-.04-.97-.426l-4.094-10.506c-.15-.386.04-.822.426-.97.386-.15.82.04.97.425l4.095 10.504c.123.316.017.664-.237.863zM47.402 18.572c-.056.044-.12.08-.19.107-.385.15-.82-.04-.97-.427L42.146 7.748c-.15-.386.04-.82.427-.97.386-.15.82.04.97.425l4.096 10.505c.122.317.017.666-.238.864zM50.535 16.127c-.056.044-.12.08-.19.108-.385.15-.82-.04-.97-.427L45.28 5.303c-.15-.385.04-.822.426-.97.386-.15.82.04.97.426l4.095 10.504c.125.316.02.665-.235.863zM57.54 22.27c-.053.042-.11.076-.174.102-.382.16-.82-.02-.98-.403L48.42 2.874c-.16-.382.017-.822.402-.98.382-.16.822.02.98.403L57.77 21.39c.132.32.03.678-.23.88zM64.926 31.938c-.056.044-.12.08-.188.107-.385.15-.82-.04-.972-.425L52.706 3.378c-.152-.386.04-.824.425-.972.387-.15.822.04.973.424l11.06 28.243c.124.317.018.667-.237.865zM69.354 34.984c-.06.046-.127.085-.202.112-.39.143-.82-.056-.963-.444l-9.012-24.464c-.143-.39.056-.82.444-.963.39-.143.82.056.963.444l9.01 24.463c.117.314.01.656-.24.85zM72.6 32.726c-.058.046-.125.084-.2.112-.39.144-.82-.055-.964-.444l-5.69-15.397c-.145-.388.05-.82.443-.963.387-.144.818.055.962.444l5.69 15.397c.117.313.01.655-.24.85z"/></g></svg>