<svg version="1.2" baseProfile="tiny" xmlns="http://www.w3.org/2000/svg" width="34.016" height="34.016" viewBox="0 0 34.016 34.016"><path fill="#fff" d="M25.54 12.552c-.625.278-1.3.466-2.006.55.722-.433 1.276-1.117 1.537-1.933-.675.4-1.422.69-2.22.846-.635-.68-1.544-1.104-2.55-1.104-1.93 0-3.494 1.565-3.494 3.495 0 .274.03.54.09.796-2.905-.146-5.48-1.536-7.205-3.652-.3.52-.472 1.12-.472 1.76 0 1.21.617 2.282 1.555 2.91-.573-.02-1.112-.177-1.584-.438v.043c0 1.694 1.204 3.107 2.804 3.427-.293.082-.602.123-.92.123-.226 0-.446-.02-.658-.062.444 1.388 1.735 2.4 3.265 2.426-1.195.937-2.703 1.496-4.34 1.496-.282 0-.56-.016-.834-.048 1.547.99 3.384 1.57 5.358 1.57 6.43 0 9.945-5.325 9.945-9.945 0-.152-.004-.303-.01-.452.68-.49 1.274-1.107 1.74-1.808"/></svg>