<svg xmlns="http://www.w3.org/2000/svg" width="122.628" height="88.872" viewBox="0 0 122.628 88.872"><path fill="#01C0B7" d="M61.688 41.092c-10.188 0-18.477-9.22-18.477-20.55C43.21 9.214 51.5 0 61.69 0 71.87 0 80.155 9.215 80.155 20.54c0 11.332-8.284 20.552-18.467 20.552zm0-31.33c-4.805 0-8.714 4.835-8.714 10.78 0 5.948 3.91 10.787 8.714 10.787 4.8 0 8.705-4.84 8.705-10.79 0-5.943-3.904-10.777-8.705-10.777zM88.014 54.282c-.787 3.166-2.962 6.15-5.444 8.678.842 1.35 1.294 2.8 1.22 3.816l-.835 12.333H39.74c-.28-4.134-.562-8.263-.83-12.338-.142-2.07 1.903-5.98 4.978-7.113 4.612-1.65 9.436-2.61 14.29-2.905-.756-1.59-1.218-3.245-1.218-4.934h.005c0-.033-.005-.067-.005-.103 0-1.758.522-3.392 1.414-4.765-6.04.29-12.053 1.463-17.822 3.535C33.806 52.98 28.7 60.584 29.167 67.425c.367 5.573.753 11.24 1.154 16.904.175 2.56 2.303 4.542 4.868 4.542H87.51c2.566 0 4.692-1.983 4.873-4.543l1.154-16.886c.323-4.657-1.927-9.65-5.523-13.162zM88.014 54.282c-.787 3.166-2.962 6.15-5.444 8.678.842 1.35 1.294 2.8 1.22 3.816l-.835 12.333H39.74c-.28-4.134-.562-8.263-.83-12.338-.142-2.07 1.903-5.98 4.978-7.113 4.612-1.65 9.436-2.61 14.29-2.905-.756-1.59-1.218-3.245-1.218-4.934h.005c0-.033-.005-.067-.005-.103 0-1.758.522-3.392 1.414-4.765-6.04.29-12.053 1.463-17.822 3.535C33.806 52.98 28.7 60.584 29.167 67.425c.367 5.573.753 11.24 1.154 16.904.175 2.56 2.303 4.542 4.868 4.542H87.51c2.566 0 4.692-1.983 4.873-4.543l1.154-16.886c.323-4.657-1.927-9.65-5.523-13.162zM119.167 80.94H98.333c-1.35 0-2.44-1.093-2.44-2.44s1.09-2.44 2.44-2.44h18.558l.845-12.3c.186-2.68-2.174-6.73-5.492-7.947-4.733-1.697-9.715-2.603-14.787-2.688-1.35-.023-2.422-1.135-2.398-2.483.024-1.335 1.11-2.398 2.44-2.398h.043c5.607.096 11.113 1.097 16.367 2.98 5.08 1.863 9.052 7.755 8.7 12.865l-1 14.577c-.092 1.28-1.155 2.272-2.44 2.272zM103.138 42.946c-7.188 0-13.04-6.573-13.04-14.654 0-8.075 5.852-14.648 13.04-14.648 7.184 0 13.028 6.573 13.028 14.648 0 8.08-5.844 14.654-13.028 14.654zm0-24.422c-4.498 0-8.16 4.38-8.16 9.768 0 5.388 3.662 9.772 8.16 9.772 4.49 0 8.147-4.385 8.147-9.772 0-5.387-3.657-9.768-8.147-9.768zM24.295 80.94H3.452c-1.28 0-2.343-.992-2.434-2.274L.022 64.083c-.353-5.105 3.62-10.997 8.686-12.856 5.268-1.888 10.773-2.89 16.38-2.984 1.41.187 2.46 1.05 2.482 2.398.024 1.35-1.048 2.46-2.397 2.484-5.072.086-10.054.99-14.8 2.693-3.305 1.21-5.665 5.263-5.48 7.938l.84 12.304h18.563c1.35 0 2.44 1.09 2.44 2.44s-1.09 2.44-2.44 2.44zM19.49 42.946c-7.184 0-13.028-6.573-13.028-14.654 0-8.075 5.845-14.648 13.028-14.648 7.19 0 13.036 6.573 13.036 14.648 0 8.08-5.847 14.654-13.036 14.654zm0-24.422c-4.49 0-8.147 4.38-8.147 9.768 0 5.388 3.657 9.772 8.147 9.772 4.493 0 8.154-4.385 8.154-9.772 0-5.387-3.66-9.768-8.154-9.768zM79.14 44.032c-2.32 0-4.38 1.086-5.716 2.772-1.333-1.735-3.423-2.858-5.78-2.858-4.026 0-7.29 3.265-7.29 7.29 0 .03.003.06.003.087h-.004c0 8.24 13.04 15.606 13.04 15.606S86.43 59.563 86.43 51.322c0-4.026-3.264-7.29-7.29-7.29z"/></svg>