<svg version="1.2" baseProfile="tiny" xmlns="http://www.w3.org/2000/svg" width="17.008" height="17.008" viewBox="0 0 17.008 17.008"><path fill="#fff" d="M13.72 0H3.288C1.475 0 0 1.474 0 3.287v10.435c0 1.813 1.475 3.286 3.287 3.286H13.72c1.814 0 3.288-1.475 3.288-3.287V3.288C17.008 1.473 15.533 0 13.72 0zm.944 1.96h.376V4.84l-2.874.01-.01-2.884 2.508-.008zM6.077 6.758C6.62 6.004 7.505 5.51 8.504 5.51s1.883.494 2.428 1.248c.354.492.566 1.094.566 1.746 0 1.65-1.344 2.993-2.994 2.993-1.65 0-2.993-1.343-2.993-2.993 0-.652.213-1.254.567-1.746zm9.275 6.963c0 .9-.73 1.63-1.63 1.63H3.286c-.9 0-1.63-.73-1.63-1.63V6.76h2.54c-.22.54-.344 1.128-.344 1.746 0 2.564 2.086 4.65 4.65 4.65 2.563 0 4.65-2.086 4.65-4.65 0-.617-.124-1.206-.343-1.746h2.54v6.963h.002z"/></svg>