<?xml version="1.0" encoding="utf-8"?>
<!-- Generator: Adobe Illustrator 16.0.0, SVG Export Plug-In . SVG Version: 6.00 Build 0)  -->
<!DOCTYPE svg PUBLIC "-//W3C//DTD SVG 1.1//EN" "http://www.w3.org/Graphics/SVG/1.1/DTD/svg11.dtd">
<svg version="1.1" id="Calque_1" xmlns="http://www.w3.org/2000/svg" xmlns:xlink="http://www.w3.org/1999/xlink" x="0px" y="0px"
	 width="18.332px" height="22.527px" viewBox="0 0 18.332 22.527" enable-background="new 0 0 18.332 22.527" xml:space="preserve">
<path fill="#E76946" d="M11.332,22.028c-0.275,0-0.5-0.224-0.5-0.5v-6c0-0.275,0.225-0.5,0.5-0.5h6c0.275,0,0.5,0.225,0.5,0.5
	c0,0.276-0.225,0.5-0.5,0.5h-5.5v5.5C11.832,21.805,11.607,22.028,11.332,22.028z M11.332,22.528H1c-0.553,0-1-0.446-1-1V1
	c0-0.554,0.447-1,1-1h16.332c0.553,0,1,0.446,1,1v14.527c0,0.267-0.105,0.521-0.293,0.707l-6,6
	C11.852,22.423,11.598,22.528,11.332,22.528L11.332,22.528z M2,20.528h8.918l5.414-5.414V2H2V20.528z M9.167,13.485
	c-0.256,0-0.512-0.098-0.707-0.293l-2.94-2.939c-0.392-0.391-0.392-1.022,0-1.413c0.392-0.392,1.022-0.393,1.413,0l2.234,2.229
	L11.4,8.84c0.39-0.393,1.022-0.393,1.414,0c0.391,0.392,0.39,1.021,0,1.413l-2.94,2.939C9.68,13.388,9.424,13.485,9.167,13.485z
	 M9.167,12.687c-0.552,0-1-0.447-1-1v-6.81c0-0.554,0.446-1,1-1c0.55,0,1,0.445,1,1v6.81C10.167,12.237,9.721,12.687,9.167,12.687z"
	/>
</svg>
