<svg xmlns="http://www.w3.org/2000/svg" width="23.834" height="23.834" viewBox="0 0 23.834 23.834"><path fill="#185e3e" d="M22.834 23.834H1c-.553 0-1-.447-1-1V1c0-.553.447-1 1-1s1 .447 1 1v20.834h20.834c.552 0 1 .447 1 1s-.448 1-1 1zM1.332 23.45c-.19 0-.385-.055-.556-.17-.46-.307-.58-.928-.274-1.387l5.25-7.833c.28-.418.826-.564 1.278-.338l1.72.86L12 7.052c.204-.475.738-.718 1.233-.55l1.923.64L22.01.482c.396-.385 1.03-.375 1.414.02.386.397.376 1.03-.02 1.415L16.114 9c-.27.26-.658.353-1.014.23l-1.63-.54-3.304 7.656c-.108.252-.316.448-.575.543-.257.092-.542.078-.79-.046l-1.877-.94-4.76 7.103c-.192.288-.51.443-.83.443zM22.834 9.22c-.553 0-1-.448-1-1V2h-6.22c-.552 0-1-.447-1-1s.448-1 1-1h7.22c.552 0 1 .447 1 1v7.22c0 .55-.448 1-1 1zM5.25 23.284c-.277 0-.5-.224-.5-.5v-2.167c0-.276.223-.5.5-.5s.5.224.5.5v2.167c0 .277-.225.5-.5.5zM9.52 23.284c-.275 0-.5-.224-.5-.5v-2.167c0-.276.225-.5.5-.5s.5.224.5.5v2.167c0 .277-.223.5-.5.5zM13.792 23.284c-.276 0-.5-.224-.5-.5v-2.167c0-.276.224-.5.5-.5s.5.224.5.5v2.167c0 .277-.224.5-.5.5zM18.063 23.284c-.276 0-.5-.224-.5-.5v-2.167c0-.276.224-.5.5-.5s.5.224.5.5v2.167c0 .277-.223.5-.5.5zM22.335 23.284c-.276 0-.5-.224-.5-.5v-2.167c0-.276.224-.5.5-.5s.5.224.5.5v2.167c0 .277-.224.5-.5.5zM3.21 2.075H1.04c-.276 0-.5-.224-.5-.5s.224-.5.5-.5H3.21c.275 0 .5.224.5.5s-.225.5-.5.5zM3.21 6.346H1.04c-.276 0-.5-.224-.5-.5s.224-.5.5-.5H3.21c.275 0 .5.224.5.5s-.225.5-.5.5zM3.21 10.617H1.04c-.276 0-.5-.224-.5-.5s.224-.5.5-.5H3.21c.275 0 .5.224.5.5s-.225.5-.5.5zM3.21 14.89H1.04c-.276 0-.5-.225-.5-.5s.224-.5.5-.5H3.21c.275 0 .5.223.5.5s-.225.5-.5.5zM3.21 19.16H1.04c-.276 0-.5-.224-.5-.5s.224-.5.5-.5H3.21c.275 0 .5.224.5.5s-.225.5-.5.5z"/></svg>
