<?xml version="1.0" encoding="utf-8"?>
<!-- Generator: Adobe Illustrator 16.0.0, SVG Export Plug-In . SVG Version: 6.00 Build 0)  -->
<!DOCTYPE svg PUBLIC "-//W3C//DTD SVG 1.1//EN" "http://www.w3.org/Graphics/SVG/1.1/DTD/svg11.dtd">
<svg version="1.1" id="Layer_3" xmlns="http://www.w3.org/2000/svg" xmlns:xlink="http://www.w3.org/1999/xlink" x="0px" y="0px"
	 width="22.848px" height="23.232px" viewBox="0 0 22.848 23.232" enable-background="new 0 0 22.848 23.232" xml:space="preserve">
<g>
	<g>
		<path fill="#FFFFFF" d="M9.967,19.937c-5.492,0-9.965-4.471-9.967-9.964C0.002,4.474,4.474,0.001,9.969,0
			c5.494,0,9.968,4.473,9.97,9.97C19.938,15.465,15.465,19.937,9.967,19.937L9.967,19.937z M9.969,2
			C5.576,2.001,2.002,5.577,2,9.972c0.002,4.391,3.575,7.964,7.967,7.964c4.396,0,7.973-3.574,7.973-7.967
			C17.937,5.575,14.361,2,9.969,2L9.969,2z"/>
	</g>
	<g>
		<path fill="#FFFFFF" d="M4.362,9.967h-1C3.363,6.324,6.327,3.36,9.969,3.36v1C6.878,4.36,4.363,6.875,4.362,9.967L4.362,9.967z"/>
	</g>
	<g>
		<path fill="#FFFFFF" d="M21.847,23.232c-0.257,0-0.513-0.099-0.707-0.293l-5.568-5.567c-0.391-0.39-0.391-1.022,0-1.414
			c0.391-0.391,1.023-0.391,1.414,0l5.568,5.567c0.391,0.39,0.391,1.022,0,1.414C22.358,23.135,22.103,23.232,21.847,23.232
			L21.847,23.232z"/>
	</g>
</g>
</svg>
